# xmcd
#
# Track frame offsets:
#	182
#	9370
#	21892
#	38662
#	49260
#	61685
#	72182
#	85435
#	97667
#	112935
#	126957
#	138355
#
# Disc length: 1964 seconds
#
# Revision: 1
# Processed by: cddbd v1.5.2PL0 Copyright (c) Steve Scherf et al.
# Submitted via: audiograbber 1.83.01
#
DISCID=9007aa0c
DTITLE=Various Artist - Ganz in Weiß - Die schönsten Hochzeitsmelodien
DYEAR=1996
DGENRE=Schlager
TTITLE0=Wolff, Hubert, Sextett - Vor dem Altar stehen wir zwei
TTITLE1=Valente, Caterina - 1000 rosarote Pfeile
TTITLE2=Black, Roy - Ganz in Weiß
TTITLE3=Nina und Jimmy - Der bunte Hochzeitswagen
TTITLE4=Kammerorchester Rondo Verona - Dornröschens Brautfahrt
TTITLE5=Candellight Sisters - Eine weiße Hochzeitskutsche
TTITLE6=Winter, Horst - Wenn die Glocken hell erklingen
TTITLE7=Roos, Mary - Mama verzeih' mir
TTITLE8=Meeren, Jan van - Liebestraum (Ich liebe Dich)
TTITLE9=Illic, Bata - Du gehst als Braut zum Altar
TTITLE10=Paola - Wunderschönes Leben
TTITLE11=Wolff, Hubert, Sextett - Als Bräutigam und glückliche Braut
EXTD=
EXTT0=
EXTT1=
EXTT2=
EXTT3=
EXTT4=
EXTT5=
EXTT6=
EXTT7=
EXTT8=
EXTT9=
EXTT10=
EXTT11=
PLAYORDER=
